<svg fill="none" height="800" stroke="#ab2626" viewBox="0 0 24 24" width="800" xmlns="http://www.w3.org/2000/svg"><path d="m3.06167 7.24464c.04677-1.022.20679-1.68113.4232-2.24062l.00291-.00773c.21445-.56934.5504-1.0851.98446-1.5114l.00609-.00598.00598-.00609c.42665-.43462.9426-.77024 1.51144-.98412l.00981-.00375c.55822-.21709 1.21606-.37652 2.23891-.42328m-5.1828 5.18297c-.04917 1.09195-.0617 1.43044-.0617 4.26166 0 2.8318.01184 3.1695.06167 4.2617m.00003-8.52336v.27544m.427 10.49672c.21388.5688.5495 1.0847.98412 1.5114l.00608.006.00597.006c.42632.4341.9421.7701 1.51144.9845l.0085.0032c.55873.2167 1.21689.3762 2.23969.423m-4.7558-2.9341-.00375-.0099c-.21709-.5582-.37652-1.216-.42328-2.2389m.42703 2.2488-.01282-.0676m-.41421-2.1812.01675.0882m-.01675-.0882v-.2761m.41421 2.4573-.39746-2.093m.39746 2.093c-.16881-.4459-.34263-1.0682-.39746-2.093m.39746 2.093c.00592.0157.01183.0311.01774.0463.21407.5771.55326 1.0997.9932 1.5301.43029.4399.95265.779 1.52957.9931.46298.1803 1.11536.3688 2.22795.4198 1.12279.0511 1.46968.0615 4.26189.0615 2.7923 0 3.1395-.0104 4.2623-.0615 1.1139-.0511 1.7655-.2406 2.2269-.4195.5772-.214 1.0999-.5533 1.5303-.9934.4398-.4303.7789-.9526.993-1.5295.1803-.463.3688-1.1153.4197-2.2279.0511-1.1228.0616-1.4704.0616-4.2619 0-2.79158-.0105-3.13946-.0616-4.26225-.0513-1.11978-.2425-1.77237-.4223-2.23413-.235-.6067-.533-1.06555-.9911-1.52365-.4572-.45628-.9148-.75448-1.522-.98973-.4634-.18117-1.1164-.37123-2.2345-.42248-.0973-.00442-.1887-.00854-.2764-.01238m-13.41371 13.79452c-.00155-.0289-.003-.0581-.00436-.0877-.00442-.0973-.00855-.1888-.01239-.2766m5.18283-13.43023c1.09221-.04983 1.43058-.06167 4.26173-.06167 2.8312 0 3.1694.01252 4.2613.06168m-8.52303-.00001h.27615m8.24688.00001h-.2754m.2754 0c1.0222.04676 1.6814.20676 2.241.42319l.0077.00294c.5693.21445 1.0851.5504 1.5114.98446l.0059.00603.0061.00592c.4341.42633.77.94224.9843 1.51174l.0036.00963c.2171.55822.3766 1.21606.4233 2.23891m-13.43018-5.18283 7.97148.00001m-7.97148-.00001c.92486-.04044 1.43604-.04914 3.98558-.04914 2.5498 0 3.0609.00871 3.9859.04915m-7.97148-.00001c-.08778.00384-.17928.00797-.2766.01239-1.11398.05106-1.76559.24058-2.22694.41952-.57941.21479-1.1038.55578-1.53516.99828-.45382.4557-.75087.91236-.98537 1.51754-.18119.4634-.37128 1.11674-.42253 2.23494-.00441.09701-.00853.18823-.01235.27574m18.88913 8.24792c-.0467 1.0228-.2062 1.681-.4229 2.2397l-.0032.0085c-.2145.5694-.5504 1.0851-.9845 1.5114l-.0061.006-.0059.0061c-.4267.4346-.9426.7702-1.5115.9841l-.0098.0038c-.5582.2171-1.2161.3765-2.2389.4233m-13.70636-5.459c-.04044-.9249-.04914-1.4361-.04914-3.9856 0-2.55039.0087-3.06086.04917-3.98622m-.00003 7.97182.00003-7.97182m7.75383 8.06802c.536.222 1.1105.3363 1.6907.3363 1.1718 0 2.2956-.4655 3.1242-1.294.8285-.8286 1.294-1.9524 1.294-3.1241 0-1.1718-.4655-2.29558-1.294-3.12415-.8286-.82856-1.9524-1.29405-3.1242-1.29405-.5802 0-1.1547.11428-1.6907.33632-.5361.22203-1.02311.54747-1.43337.95773-.41026.41027-.7357.89732-.95774 1.43336-.22203.53599-.33631 1.11059-.33631 1.69079s.11428 1.1547.33631 1.6907c.22204.5361.54748 1.0231.95774 1.4334.41026.4102.89727.7357 1.43337.9577zm-1.44321-7.21579c.83121-.83118 1.95851-1.29813 3.13391-1.29813 1.1755 0 2.3028.46695 3.134 1.29813s1.2981 1.95849 1.2981 3.13399c0 1.1754-.4669 2.3027-1.2981 3.1339s-1.9585 1.2981-3.134 1.2981c-1.1754 0-2.3027-.4669-3.13391-1.2981-.83118-.8312-1.29813-1.9585-1.29813-3.1339 0-1.1755.46695-2.30281 1.29813-3.13399zm10.06171-2.33002c0 .33644-.1337.6591-.3715.897-.2379.2379-.5606.37155-.897.37155-.3365 0-.6591-.13365-.897-.37155s-.3716-.56056-.3716-.897.1337-.6591.3716-.89699c.2379-.2379.5605-.37155.897-.37155.3364 0 .6591.13365.897.37155.2378.23789.3715.56055.3715.89699z" stroke="#ab2626" stroke-linejoin="round"/></svg>